<svg version="1" xmlns="http://www.w3.org/2000/svg" width="682.667" height="682.667" viewBox="0 0 512.000000 512.000000"><path d="M0 256v256h512V0H0v256zm138.5-128.1c20.6 6.8 34.3 20.3 40.1 39.6 1.4 4.5 1.8 9.2 1.8 18.5 0 18.5-3.6 30-13.7 43.6-4.5 6.2-14.3 14.1-20.8 16.8-2.2 1-2.9 1.6-1.9 1.9.8.3 4.4 1.3 7.9 2.3 18.1 5.1 32.6 22.7 36.7 44.4 2 10.4 1.4 31.4-1.1 40.5-5.6 20.1-19.5 36.5-38.6 45.4-14.1 6.6-18.6 7.1-62.4 7.1H48V124.9l41.8.3c40.3.4 41.9.5 48.7 2.7zM249 237.5V350h81v38H214V125h35v112.5zM459 144v19h-78v74h72v38h-72v75h83v38H346V125h113v19z"/><path d="M83 197.5v37.7l16.3-.4c13.6-.4 17.1-.8 21.9-2.7 11.9-4.6 19.7-15.1 21.9-29.2 3.1-19.9-3.3-34.4-17.7-39.9-5.1-2-8.3-2.4-24.1-2.8l-18.3-.4v37.7zM83 311.5v41.7l20.3-.4c24-.6 28.7-1.8 37.4-10.1 8.9-8.4 13.2-21.2 12-36.1-1.3-17.9-8.9-28.2-24.8-33.7-5.5-1.9-9.2-2.3-25.6-2.7l-19.3-.5v41.8z"/></svg>