<?xml version="1.0" encoding="UTF-8"?>
<!DOCTYPE svg PUBLIC "-//W3C//DTD SVG 1.1//EN" "http://www.w3.org/Graphics/SVG/1.1/DTD/svg11.dtd">
<svg xmlns="http://www.w3.org/2000/svg" xml:space="preserve" width="9in" height="3in" version="1.1" style="shape-rendering:geometricPrecision; text-rendering:geometricPrecision; image-rendering:optimizeQuality; fill-rule:evenodd; clip-rule:evenodd" viewBox="0 0 9000 3000" 
   xmlns:xlink="http://www.w3.org/1999/xlink">
   <defs>
      <style type="text/css">
         <![CDATA[
    .fil0 {fill:#e8f5f8;fill-rule:nonzero}
   ]]>
      </style>
   </defs>
   <g id="Layer_x0020_1">
      <metadata id="CorelCorpID_0Corel-Layer"/>
      <path class="fil0" d="M2491 1207c45,0 66,-25 66,-66 0,-44 -22,-65 -68,-65l-61 0 0 132 62 0zm-3 -229c42,0 60,-17 60,-58 0,-41 -18,-57 -59,-57l-60 0 0 115 59 0zm-199 -230l209 0c89,0 184,21 184,142 0,85 -46,119 -93,132l0 2c60,12 105,43 105,139 0,122 -102,156 -192,156l-213 0 0 -570z"/>
      <polygon class="fil0" points="2763,748 3107,748 3107,868 2906,868 2906,967 3049,967 3049,1080 2906,1080 2906,1201 3116,1201 3116,1318 2763,1318 "/>
      <path class="fil0" d="M3407 1068c-14,-56 -25,-93 -34,-146l-2 0c-8,53 -21,89 -35,146l-11 43 92 0 -10 -43zm-134 249l-133 0 166 -572 139 0 166 572 -144 0 -24 -96 -146 0 -25 96z"/>
      <path class="fil0" d="M3635 1116l0 -368 143 0 0 361c0,72 19,98 65,98 45,0 64,-27 64,-97l0 -362 136 0 0 367c0,139 -59,212 -203,212 -144,0 -206,-74 -206,-211z"/>
      <polygon class="fil0" points="4118,748 4454,748 4454,868 4261,868 4261,984 4398,984 4398,1097 4261,1097 4261,1318 4118,1318 "/>
      <path class="fil0" d="M4801 1033c0,-114 -29,-174 -92,-174 -62,0 -92,60 -92,174 0,114 30,178 92,178 62,0 92,-64 92,-178zm-328 0c0,-210 111,-296 236,-296 125,0 236,85 236,296 0,210 -111,296 -236,296 -126,0 -236,-85 -236,-296z"/>
      <path class="fil0" d="M5188 1016c48,0 71,-21 71,-77 0,-55 -23,-72 -71,-72l-42 0 0 149 42 0zm-182 -268l186 0c125,0 203,51 203,188 0,71 -32,125 -86,151l104 231 -148 0 -88 -194 -32 0 0 194 -139 0 0 -570z"/>
      <polygon class="fil0" points="5555,868 5425,868 5425,748 5829,748 5829,868 5699,868 5699,1318 5555,1318 "/>
      <polygon class="fil0" points="6037,748 6181,748 6181,1201 6388,1201 6388,1318 6037,1318 "/>
      <path class="fil0" d="M6675 1068c-14,-56 -25,-93 -34,-146l-2 0c-8,53 -21,89 -35,146l-11 43 92 0 -10 -43zm-134 249l-133 0 166 -572 139 0 166 572 -144 0 -24 -96 -146 0 -25 96z"/>
      <path class="fil0" d="M6877 1031c0,-189 81,-294 231,-294 112,0 176,55 201,204l-130 26c-15,-85 -38,-109 -75,-109 -38,0 -82,21 -82,171 0,149 39,181 89,181 41,0 69,-25 79,-78l-69 0 0 -105 199 0 0 290 -103 0 0 -71 -2 0c-11,35 -56,80 -125,80 -139,0 -212,-112 -212,-296z"/>
      <path class="fil0" d="M7704 1033c0,-114 -29,-174 -92,-174 -62,0 -92,60 -92,174 0,114 30,178 92,178 62,0 92,-64 92,-178zm-328 0c0,-210 111,-296 236,-296 125,0 236,85 236,296 0,210 -111,296 -236,296 -126,0 -236,-85 -236,-296z"/>
      <path class="fil0" d="M8216 1033c0,-114 -29,-174 -92,-174 -62,0 -92,60 -92,174 0,114 30,178 92,178 62,0 92,-64 92,-178zm-328 0c0,-210 111,-296 236,-296 125,0 236,85 236,296 0,210 -111,296 -236,296 -126,0 -236,-85 -236,-296z"/>
      <path class="fil0" d="M8421 748l143 0 107 209c18,35 25,51 45,96l2 0 0 -306 129 0 0 570 -132 0 -126 -231c-14,-25 -22,-39 -36,-73l-2 0 0 304 -129 0 0 -570z"/>
      <polygon class="fil0" points="2289,1672 2633,1672 2633,1792 2432,1792 2432,1891 2575,1891 2575,2004 2432,2004 2432,2125 2642,2125 2642,2242 2289,2242 "/>
      <path class="fil0" d="M2666 1957c0,-210 97,-296 231,-296 133,0 187,78 202,204l-135 24c-11,-73 -27,-106 -72,-106 -59,0 -82,58 -82,174 0,117 25,178 84,178 46,0 65,-30 77,-114l135 22c-20,117 -73,209 -213,209 -134,0 -227,-85 -227,-295z"/>
      <path class="fil0" d="M3463 1957c0,-114 -29,-174 -92,-174 -62,0 -92,60 -92,174 0,114 30,178 92,178 62,0 92,-64 92,-178zm-328 0c0,-210 111,-296 236,-296 125,0 236,85 236,296 0,210 -111,296 -236,296 -126,0 -236,-85 -236,-296z"/>
      <path class="fil0" d="M3640 2115l115 -59c24,42 62,82 112,82 40,0 60,-19 60,-49 0,-38 -42,-55 -93,-75 -76,-31 -172,-66 -172,-186 0,-101 82,-167 194,-167 102,0 165,55 202,131l-110 61c-25,-48 -55,-75 -95,-75 -34,0 -51,18 -51,43 0,35 37,53 84,73 78,32 182,69 182,189 0,88 -66,169 -200,169 -120,0 -186,-58 -226,-137z"/>
      <polygon class="fil0" points="4217,2024 4055,1672 4202,1672 4292,1894 4293,1894 4383,1672 4524,1672 4360,2024 4360,2242 4217,2242 "/>
      <path class="fil0" d="M4504 2115l115 -59c24,42 62,82 112,82 40,0 60,-19 60,-49 0,-38 -42,-55 -93,-75 -76,-31 -172,-66 -172,-186 0,-101 82,-167 194,-167 102,0 165,55 202,131l-110 61c-25,-48 -55,-75 -95,-75 -34,0 -51,18 -51,43 0,35 37,53 84,73 78,32 182,69 182,189 0,88 -66,169 -200,169 -120,0 -186,-58 -226,-137z"/>
      <polygon class="fil0" points="5078,1792 4948,1792 4948,1672 5351,1672 5351,1792 5221,1792 5221,2242 5078,2242 "/>
      <polygon class="fil0" points="5401,1672 5746,1672 5746,1792 5545,1792 5545,1891 5688,1891 5688,2004 5545,2004 5545,2125 5755,2125 5755,2242 5401,2242 "/>
      <path class="fil0" d="M5813 1672l183 0 78 371 1 0 71 -371 186 0 0 570 -136 0 0 -367 -2 0c-2,40 -18,110 -24,138l-52 229 -105 0 -51 -229c-4,-18 -22,-100 -25,-142l-2 0 0 371 -124 0 0 -570z"/>
      <path class="fil0" d="M6393 2115l115 -59c24,42 62,82 112,82 40,0 60,-19 60,-49 0,-38 -42,-55 -93,-75 -76,-31 -172,-66 -172,-186 0,-101 82,-167 194,-167 102,0 165,55 202,131l-110 61c-25,-48 -55,-75 -95,-75 -34,0 -51,18 -51,43 0,35 37,53 84,73 78,32 182,69 182,189 0,88 -66,169 -200,169 -120,0 -186,-58 -226,-137z"/>
      <polygon class="fil0" points="7073,1672 7112,1672 7112,2206 7396,2206 7396,2242 7073,2242 "/>
      <polygon class="fil0" points="7567,1707 7379,1707 7379,1672 7792,1672 7792,1707 7605,1707 7605,2242 7567,2242 "/>
      <polygon class="fil0" points="7897,1672 8226,1672 8226,1707 7935,1707 7935,1921 8154,1921 8154,1957 7935,1957 7935,2206 8243,2206 8243,2242 7897,2242 "/>
      <path class="fil0" d="M8539 1940c99,0 156,-30 156,-119 0,-83 -57,-114 -157,-114l-143 0 0 233 144 0zm-182 -268l186 0c124,0 192,54 192,148 0,92 -56,136 -139,150l147 272 -45 0 -145 -267 -157 0 0 267 -39 0 0 -570z"/>
      <polygon class="fil0" points="671,1811 813,1798 858,1672 709,1419 557,1615 "/>
      <polygon class="fil0" points="1141,1801 1086,1659 908,1675 854,1827 986,1910 "/>
      <polygon class="fil0" points="1216,1943 1162,1849 1040,1939 1134,2005 "/>
      <polygon class="fil0" points="733,1026 537,1021 520,1108 543,1230 706,1379 925,1294 "/>
      <polygon class="fil0" points="799,1435 848,1522 928,1586 1030,1373 948,1357 "/>
      <polygon class="fil0" points="1204,1497 1204,1407 1108,1413 1049,1521 1157,1532 "/>
      <polygon class="fil0" points="1200,1773 1371,1689 1209,1590 1152,1624 "/>
      <polygon class="fil0" points="1366,1966 1513,2033 1659,1964 1650,1760 1429,1722 1345,1835 "/>
      <polygon class="fil0" points="1315,1951 1283,1802 1209,1830 1256,1930 "/>
      <polygon class="fil0" points="1872,1905 1932,1815 1849,1701 1723,1729 1724,1889 "/>
      <path class="fil0" d="M1729 2001l107 86c8,-11 17,-22 24,-33 16,-23 31,-46 45,-70l-126 -17 -51 33z"/>
      <path class="fil0" d="M682 959l38 -145 -116 -159c-55,30 -107,66 -157,108 -4,3 -7,6 -11,9l74 183 172 4z"/>
      <polygon class="fil0" points="830,1042 899,1112 963,1054 943,924 852,963 "/>
      <polygon class="fil0" points="856,804 845,643 785,635 689,685 795,821 "/>
      <path class="fil0" d="M108 1573c-1,-10 -1,-20 -2,-30 0,10 1,20 2,30z"/>
      <path class="fil0" d="M427 2219c0,0 -1,-1 -1,-1 -13,-12 -26,-24 -38,-36 -12,-12 -23,-24 -35,-37 -8,-9 -16,-18 -23,-27 -1,-1 -1,-2 -2,-2 1,1 1,2 2,2 0,0 0,0 0,0 18,22 38,43 58,64 13,13 26,25 39,37 0,0 0,0 0,0 0,0 0,0 0,0 3,2 5,4 8,7 -3,-2 -5,-4 -8,-7z"/>
      <path class="fil0" d="M933 2455c7,1 14,2 21,3 0,0 0,0 1,0 -7,-1 -14,-2 -21,-3z"/>
      <path class="fil0" d="M108 1433c0,-5 1,-9 1,-14 0,5 -1,9 -1,14z"/>
      <path class="fil0" d="M484 2267c-9,-7 -18,-14 -26,-21 9,7 17,14 26,21z"/>
      <path class="fil0" d="M292 2071c4,5 8,11 12,16 -4,-5 -8,-11 -12,-16z"/>
      <path class="fil0" d="M1467 2379c-7,3 -14,6 -21,9l-138 -138c-4,-4 -4,-11 0,-15 4,-4 11,-4 15,0l144 144zm-94 37c-8,3 -15,5 -23,7l-129 -129c-4,-4 -4,-11 0,-15 4,-4 11,-4 15,0l137 137zm-75 21l-157 -157c-4,-4 -4,-11 0,-15 4,-4 11,-4 15,0l166 166c-8,2 -16,4 -24,6zm-54 11l-182 -182c-4,-4 -4,-11 0,-15 4,-4 11,-4 15,0l193 193c-8,2 -17,3 -26,5zm-88 12c-9,1 -19,2 -28,2l-345 -345c-4,-4 -4,-11 0,-15 4,-4 11,-4 15,0l358 358zm-96 4l-358 -358c-4,-4 -4,-11 0,-15 4,-4 11,-4 15,0l373 373c-10,0 -20,0 -30,0zm-64 -3l-529 -529c-4,-4 -4,-11 0,-15 4,-4 11,-4 15,0l546 546c-11,0 -22,-1 -32,-2zm-116 -16c-13,-3 -26,-6 -39,-9l-708 -708c-3,-13 -6,-26 -9,-39l756 756zm-189 -59c-19,-8 -38,-17 -57,-27l-424 -424c-10,-19 -19,-38 -27,-58l508 508zm978 -337l-164 37 -109 -42 -161 -54 -97 57 -238 -141 -89 -55 -158 17 -158 -248 107 -147 -10 -124 -97 -97 -30 -164 0 -104 -102 -141c-83,89 -146,190 -189,297 -3,9 -6,17 -10,26 2,-6 5,-12 7,-18l40 40c4,4 4,11 0,15 -2,2 -5,3 -8,3 -3,0 -6,-1 -8,-3l-34 -34c-5,13 -9,25 -13,38 1,-4 3,-8 4,-12l86 86c4,4 4,11 0,15 -2,2 -5,3 -8,3 -3,0 -6,-1 -8,-3l-79 -79c0,-1 1,-2 1,-4 -3,10 -6,20 -9,31l131 131c4,4 4,11 0,15 -2,2 -5,3 -8,3 -3,0 -6,-1 -8,-3l-122 -122c-4,16 -7,32 -10,49 1,-7 3,-14 4,-20l172 172c4,4 4,11 0,15 -2,2 -5,3 -8,3 -3,0 -6,-1 -8,-3l-162 -162c-2,10 -4,20 -5,30l298 298c4,4 4,11 0,15 -2,2 -5,3 -8,3 -3,0 -6,-1 -8,-3l-286 -286c1,-5 1,-9 2,-14 -2,15 -4,30 -5,45l299 299c4,4 4,11 0,15 -2,2 -5,3 -8,3 -3,0 -6,-1 -8,-3l-286 -286c-1,9 -1,18 -1,26 0,4 0,7 0,11l296 296c4,4 4,11 0,15 -2,2 -5,3 -8,3 -3,0 -6,-1 -8,-3l-281 -281c0,-4 0,-8 0,-11 0,14 0,29 1,43l290 290c4,4 4,11 0,15 -2,2 -5,3 -8,3 -3,0 -6,-1 -8,-3l-273 -273c2,29 6,58 10,87 17,101 50,199 99,291l0 0c20,38 43,75 69,110 -10,-15 -20,-29 -30,-44l296 295c-22,-14 -43,-28 -63,-44 27,20 55,39 83,57 66,40 136,71 207,94 -10,-3 -21,-7 -31,-10l-587 -587c-5,-15 -10,-30 -15,-46l647 647c-3,-1 -6,-2 -9,-2l-2 0 -1 0c0,0 0,0 1,0 0,0 0,0 0,0 0,0 0,0 0,0 0,0 0,0 0,0 46,14 92,25 139,32l-806 -806c-2,-12 -4,-24 -5,-36l846 846c30,3 60,6 90,6 51,1 103,-2 154,-9l0 0c0,0 0,0 0,0 0,0 0,0 0,0l0 0c-5,1 -9,1 -14,2l-328 -328c-4,-4 -4,-11 0,-15 4,-4 11,-4 15,0l340 340c-4,1 -8,1 -13,2l0 0c74,-10 147,-29 217,-56 0,0 0,0 0,0l0 0c-7,3 -13,5 -20,7l-124 -124c-4,-4 -4,-11 0,-15 4,-4 11,-4 15,0l131 131c0,0 -1,0 -1,1l-1 0c27,-11 54,-23 81,-36 -3,1 -6,3 -9,4l-89 -89c-4,-4 -4,-11 0,-15 4,-4 11,-4 15,0l94 94c61,-32 120,-70 175,-116 0,0 0,0 0,0l0 0c23,-19 45,-39 66,-60 17,-17 34,-35 49,-53l-133 -79z"/>
      <path class="fil0" d="M133 1270c1,-6 3,-11 4,-17 -1,6 -3,11 -4,17z"/>
      <path class="fil0" d="M1070 535c-533,0 -965,432 -965,965 0,533 432,965 965,965 533,0 965,-432 965,-965 0,-533 -432,-965 -965,-965l0 0zm0 28c517,0 937,420 937,937 0,517 -420,937 -937,937 -517,0 -937,-420 -937,-937 0,-517 420,-937 937,-937z"/>
   </g>
</svg>
