<?xml version="1.0"?>
<svg xmlns="http://www.w3.org/2000/svg" version="1.2" baseProfile="tiny" width="800" height="193" viewBox="10 -15 800 193" fill="#0A5AA3">
<g id="Converted_Graphics_3">
<path d="M 44.283 1.407 46.3829 3.8522 48.1544 4.877 48.1945 5.1265 47.5572 5.1208 45.4334 3.5714 44.4233 2.2805 43.8791 2.2286 43.0185 2.9338 42.5173 3.3452 41.6534 5.06 40.3613 5.5604 40.1161 5.9134 39.5346 5.8361 37.4051 6.9645 36.9338 7.5737 35.8935 7.5603 35.3264 7.9912 35.1954 8.4245 35.5701 8.8811 36.0959 9.0296 36.4785 8.9126 37.0561 8.0669 37.4644 7.9613 37.9978 8.5705 38.7003 8.567 38.8915 8.9231 38.4764 10.5113 38.4684 11.3809 38.4673 11.5014 37.7747 11.9819 37.7542 12.2715 37.9099 12.4086 38.6854 12.2359 39.3838 11.786 39.4423 12.9898 39.7291 13.523 38.8344 14.4146 38.874 14.6645 39.71 14.4505 40.1509 14.0699 40.5541 14.0766 42.1562 15.0937 43.2336 15.1338 43.6541 15.0426 43.9694 14.7106 44.4424 14.7396 44.8519 15.4152 45.3474 17.2587 45.2312 17.7853 44.2643 18.0174 44.0846 18.3617 43.5353 18.5273 43.0949 18.6603 42.9892 18.8351 43.4745 19.149 44.9755 18.906 45.7746 17.8355 46.3786 17.8469 47.6815 18.8746 49.1209 19.086 51.5256 18.4288 52.12 18.5569 53.8482 18.9293 54.2548 19.3827 54.9602 19.1874 55.388 19.3509 57.5261 21.2179 58.1755 21.4322 58.3388 21.486 60.7498 21.4971 60.5963 22.6351 59.3548 24.0853 59.7898 24.5031 60.9171 24.4392 61.7651 25.5641 62.0471 25.6519 62.2286 26.5829 62.838 27.241 63.1172 27.5425 62.8393 27.9011 62.4846 27.9822 61.9743 28.9793 61.9283 30.1666 61.1663 30.2105 60.8556 30.5733 60.1014 30.4566 59.5607 31.2664 59.4976 31.585 59.4492 31.8254 59.134 32.157 58.2251 32.5405 57.743 33.0867 56.7709 33.7036 57.6536 33.9935 58.4759 32.8565 59.6794 32.4305 60.0427 31.7736 61.2053 31.9281 62.1648 31.4419 63.4652 31.4181 64.9108 29.7784 65.8193 29.8095 66.4105 28.8967 67.2258 25.814 67.505 25.6795 68.0122 26.3412 68.9416 28.8264 68.8178 29.0986 68.1912 29.1558 68.1472 29.5129 68.5738 30.0909 69.5635 30.8448 69.797 30.8439 69.698 30.2194 69.8727 29.8436 69.5023 29.1943 71.7114 29.2016 73.954 28.1517 74.1428 28.9224 75.6333 28.6165 76.1884 28.9535 76.4225 28.9523 77.5105 30.33 80.1897 30.5589 81.6761 31.4976 82.3045 31.6642 83.5087 31.2397 83.843 32.0861 83.8304 32.8534 84.5558 33.4206 84.7428 33.9694 84.578 36.7363 84.6956 38.5391 85.1052 39.4393 85.463 39.9248 86.4248 41.2322 86.4961 43.1686 86.8406 44.078 86.1921 45.4786 84.8522 47.5839 84.1348 48.0557 83.2474 48.6411 82.4409 50.0958 82.0859 50.1782 81.3662 49.6411 80.9786 49.7279 80.3101 50.3642 79.6575 51.7343 79.4869 52.5568 79.1664 52.8576 78.4094 52.9327 77.8095 52.7301 77.471 53.1301 77.0626 54.5613 76.8964 57.1081 76.5929 57.7259 76.2128 58.0674 75.6289 58.1825 73.8081 57.8642 71.602 61.2445 71.3209 61.1561 70.9668 60.1838 69.7762 59.8413 67.5558 60.3787 66.7292 60.4317 66.232 60.247 64.8137 60.5758 63.3585 60.4613 62.8673 60.9462 62.4654 60.9392 62.2507 61.4813 61.9237 61.5274 61.4 60.963 60.5803 61.2711 60.2165 60.8743 59.7148 61.0737 59.0689 60.5894 58.2738 61.0536 57.7914 60.962 58.1588 61.805 59.4039 61.4377 60.009 62.7264 60.468 62.8848 61.1245 62.6002 61.6497 62.7496 62.0935 62.1754 62.7603 62.5919 63.1576 62.5681 63.8206 65.7019 63.9377 67.2847 63.5406 67.3089 63.1201 66.761 62.4607 67.238 62.3102 68.1858 62.286 68.6691 62.2607 68.9289 62.864 69.5788 63.6063 70.0491 64.3386 69.8166 64.867 70.4141 65.1551 70.7562 65.6441 71.1034 66.1681 73.3629 65.9996 74.4112 65.4611 73.7511 64.8189 73.4907 64.6297 73.773 64.8909 74.7918 65.6192 74.7527 65.8386 75.2964 66.507 75.298 66.5397 76.3489 66.3581 76.471 65.572 75.719 65.0949 75.6582 64.5263 75.8671 63.5397 76.8064 62.6814 78.56 62.3598 78.6372 62.3035 78.0693 61.8753 77.6824 61.7691 76.8016 61.078 76.8674 60.1681 76.3889 60.1067 76.8458 60.71 77.1771 60.5292 77.6178 60.9475 77.9422 60.7178 78.3898 61.073 78.9476 61.2655 78.766 61.6333 78.8484 61.3598 79.1313 60.8678 79.1418 60.0397 78.7495 59.9474 79.427 60.5819 79.8493 61.7589 79.9065 62.6767 79.5838 63.4951 78.6363 63.9847 77.5107 64.3425 77.2363 64.8115 77.4579 66.0342 78.4356 65.7016 78.8671 64.0481 79.3895 63.7613 79.6862 63.5925 80.7336 64.2907 83.6747 65.0313 85.6175 64.9243 86.2079 64.5909 87.0559 64.0813 87.0006 64.2868 88.0912 63.6894 89.1678 63.0738 88.2311 62.7351 88.4076 62.5586 89.6165 62.5001 89.6922 62.1431 90.1564 62.4489 90.4009 63.516 90.1847 64.0267 89.8247 64.696 90.0489 65.4303 89.6254 65.7757 90.1198 66.2323 90.0556 67.7414 89.0409 67.9446 87.1551 67.0191 85.9434 66.5138 84.7128 66.4225 84.4919 66.4785 83.3634 66.0188 82.5647 66.6032 81.6181 67.521 81.2957 67.9613 80.9141 68.1951 79.8566 68.8769 79.3123 69.9714 79.4776 70.5494 79.3313 71.7343 78.587 72.1412 78.6258 73.3295 79.3847 74.025 79.3504 74.9048 79.0016 76.5527 78.8636 77.2998 79.366 77.4765 79.8525 77.9274 80.1723 78.3194 80.1167 78.5275 79.8261 78.3071 79.1911 77.7779 79.0105 77.5112 78.3762 76.942 77.9453 76.9939 77.4261 77.3385 77.2814 78.0887 77.5908 78.8023 77.4573 79.0152 78.3867 78.9316 79.5501 79.4905 79.9192 80.2227 80.9663 80.782 81.3351 81.2669 81.2346 81.9347 81.8759 82.0851 81.3424 81.861 80.7666 82.1002 80.3803 81.6282 79.7119 82.6683 79.5326 84.9372 79.9472 84.958 79.0162 83.9616 78.8381 83.5002 78.4553 83.4787 78.1062 83.8474 77.4782 85.1996 76.5189 85.8084 75.5062 86.1531 75.3606 86.5109 76.3657 86.7394 78.668 86.2237 78.9974 85.4416 79.3313 85.667 79.4912 86.436 79.2874 87.7037 80.1306 88.3932 81.1207 89.478 81.8632 92.2421 82.8787 91.9121 83.7579 92.0581 84.472 92.8702 86.245 93.3109 86.5022 94.0996 86.4227 94.971 85.5954 95.1456 84.5795 94.6145 83.5343 95.2158 83.3216 95.8444 83.7124 96.7361 83.6504 96.9161 83.3041 96.5107 82.8501 95.3671 82.3722 95.1455 82.0202 96.056 80.1636 96.0302 79.1436 96.3792 79.0308 96.541 79.4241 96.4028 80.2425 96.4856 80.7748 97.0198 80.3477 97.6062 80.68 97.8497 81.3808 98.1161 81.3754 98.2984 80.1983 97.8021 79.3729 96.9295 78.9207 96.7745 78.1433 95.3733 77.5096 94.504 76.8651 94.112 76.9208 93.65 77.5936 92.9737 77.7535 92.5101 78.2028 90.2995 76.8849 89.7068 77.5765 89.5247 78.538 89.0287 77.5119 88.8473 77.634 88.9048 78.4257 88.415 79.1736 88.1947 77.5933 87.8796 77.7122 87.8176 78.1453 87.3109 77.6276 87.5634 76.4731 87.4423 75.9142 86.9809 75.532 87.1847 74.7037 86.9784 74.0287 87.5117 72.3234 87.4721 71.4338 86.2357 65.694 86.2171 65.3039 86.1627 64.1707 86.39 63.9141 88.006 63.7821 89.0712 63.1198 92.255 59.5701 92.9932 57.0388 93.6267 56.1816 94.7092 55.8375 97.6379 53.4504 97.7903 53.3261 98.4772 53.2294 99.0596 56.085 100.0159 58.346 100.6915 59.2411 101.203 59.5203 101.7163 59.3845 102.3112 58.9168 103.112 57.2067 103.4012 55.8557 103.2563 55.1422 102.8068 54.4071 102.8749 53.567 102.259 53.0469 102.04 51.8644 101.6184 51.4249 101.0405 50.824 98.9798 47.9217 97.8136 47.0953 97.6057 46.1993 98.7275 44.8276 99.7874 43.9122 101.4657 43.101 102.8822 41.688 103.3745 40.5658 103.6969 40.4879 104.1736 42.7839 104.6564 45.1089 105.4116 46.0876 106.3556 46.5613 107.0505 47.581 107.3069 48.1512 107.1303 49.581 107.4797 50.1073 107.7066 51.768 107.9636 51.699 108.1079 51.5512 108.0394 49.837 108.4088 49.21 108.3062 48.5534 107.9562 47.3893 107.2289 47.0138 107.1325 46.6122 107.6027 45.4796 107.8361 44.9162 107.8481 42.6485 107.5124 42.217 107.4293 41.0478 106.9586 39.9645 106.3094 39.4504 105.3518 39.1067 105.077 38.6345 105.6747 38.3909 106.7888 38.4571 106.8703 38.1261 107.1976 38.0809 107.7606 38.8946 108.6794 39.2119 109.6447 38.7575 109.9768 39.3801 110.004 41.8978 109.4234 42.459 109.8318 42.72 110.2899 42.6551 110.9346 42.5009 111.0707 42.5286 112.6963 42.8593 112.5265 41.3505 112.6546 40.886 112.9965 40.9343 113.3212 42.5795 113.6465 42.949 114.1799 42.9375 115.209 42.2507 116.2603 42.7725 116.6161 44.8294 116.2831 45.4819 116.5188 45.7051 117.5591 45.3029 118.194 45.0857 118.7023 44.9178 119.0201 44.1706 116.8915 42.1519 116.9672 41.9178 118.4737 42.812 123.0805 47.6854 125.2907 50.28 124.8832 50.88 125.1706 51.2228 126.0111 51.0399 126.5125 51.2565 127.2063 52.0581 129.6925 54.928 129.6807 55.2813 128.9612 55.3827 129.0198 55.7579 129.9003 56.0485 131.0308 58.1573 130.8098 58.6676 129.7921 59.6418 129.4136 60.43 129.1181 65.6144 128.8994 65.7098 128.5306 65.0583 128.5746 63.8382 128.2958 63.3349 127.6942 63.547 127.7345 64.1603 128.3414 64.7018 128.1019 65.3104 127.6868 65.4335 128.4253 66.0961 128.857 67.1536 129.0248 68.664 129.4866 69.2697 129.3576 69.512 127.3676 69.6013 126.8343 70.2516 125.8304 70.4563 124.9254 72.1508 123.9679 72.2224 122.9272 71.7616 120.79 72.1916 120.6832 73.0059 121.2221 74.0056 121.4829 74.4908 121.9746 74.6456 122.7442 74.4405 122.9053 73.3311 123.1793 73.1648 123.6027 73.52 123.4368 73.9588 123.7532 74.4898 124.5246 74.5095 124.8239 73.8592 125.8929 73.6449 126.104 73.0706 126.6257 72.774 127.1175 72.9282 127.5101 73.7361 128.3809 73.9647 128.7661 74.2944 127.6975 75.372 128.5345 75.3812 128.9327 75.5809 128.5153 76.1192 128.8584 76.3914 128.5766 76.9418 128.8216 77.228 129.2679 76.876 129.5123 77.1622 129.4724 77.5517 129.9557 77.8665 129.7641 78.565 130.2227 78.7247 131.0399 78.609 130.331 79.6369 130.4957 79.8376 130.2977 80.2808 129.7615 80.4846 129.2611 81.1307 130.3304 81.7791 130.8923 81.3158 132.6373 80.9413 133.1746 80.9616 134.2147 81.4221 135.9363 81.1156 136.8632 80.6326 137.3315 80.8551 138.0623 80.3998 139.9621 80.1636 141.0185 80.3028 141.2536 80.5257 141.0236 82.0605 141.4466 82.4166 142.0211 82.4631 142.0468 82.8437 142.6623 82.7247 142.9562 81.8192 144.6384 81.9022 144.5376 82.332 146.1629 83.1266 145.2397 83.4166 144.7935 83.7676 146.3906 83.7336 146.8279 84.1835 147.147 84.5225 146.9012 84.8767 147.3708 85.3221 146.7555 86.3046 146.4383 86.4137 146.0435 86.021 146.2759 85.7962 146.2176 85.421 145.5246 85.9024 145.5321 86.3816 146.1286 87.0007 146.8124 87.3199 146.2267 87.8509 146.36 88.2795 146.9456 88.6133 148.7491 88.8384 149.3966 89.3542 150.2684 89.1678 152.5955 87.5917 155.3358 84.8063 156.123 83.4168 157.0577 82.771 157.7519 82.2912 158.5534 80.9955 160.6419 75.4903 160.8136 74.2194 161.5446 73.7654 165.0206 72.7005 168.0984 72.2995 168.6426 71.9621 169.165 71.6384 171.1409 71.4559 172.8209 71.9548 176.9282 71.9522 178.5292 72.5903 179.7962 72.7948 180.8192 72.7156 180.8671 73.0275 180.5519 73.5836 180.6894 74.0434 181.6396 74.5811 182.6025 74.542 182.7768 73.7188 182.5368 73.4641 181.892 73.3951 181.9268 73.2062 181.9652 73.0014 181.4872 72.7169 181.7152 72.4612 186.4091 71.9289 187.8321 71.4097 189.8144 70.3973 194.1677 67.198 194.7135 67.0574 195.1633 67.3773 194.5817 67.9379 193.7555 68.2142 193.6934 68.4189 193.6445 68.5805 194.0807 69.031 194.5617 68.8994 195.172 68.3026 195.5546 68.1846 195.6465 67.6933 197.9775 67.4297 198.4952 67.1954 198.2643 67.9957 199.1511 67.6803 200.2441 68.7089 200.0862 68.9865 199.161 69.0526 199.7743 70.8831 200.2967 70.5858 201.1842 70.4933 201.6672 71.0322 202.177 71.0888 202.7242 71.1721 202.9829 70.2408 202.918 68.94 203.2448 68.8942 204.3415 69.9543 205.0343 70.3368 204.7366 70.7934 205.6065 71.023 206.0676 70.5425 207.4785 70.4986 207.8292 70.4878 207.9559 70.6617 207.2899 71.3298 207.6646 71.5972 208.9057 70.9759 209.7183 70.8293 209.9346 71.1507 209.84 72.2824 210.1947 73.7342 210.1995 75.2995 211.5197 76.2966 212.1585 77.4216 213.3598 77.6359 214.0925 77.406 214.5534 76.9252 215.6097 73.7735 215.7334 73.1147 215.7923 72.7999 216.1596 72.8514 216.6873 73.1745 216.883 72.9239 217.6442 72.6565 218.1181 74.5363 219.0365 74.3471 218.8936 73.4082 219.5323 72.7761 221.559 72.4915 222.5807 71.9643 223.3433 72.1458 223.9972 72.0536 226.139 72.9681 230.4853 74.0058 231.1978 74.1759 232.7733 74.8818 234.893 76.31 238.2031 77.4445 240.2592 77.7956 241.1052 78.3161 242.0133 79.2435 243.32 81.0422 243.7469 82.3246 244.4025 83.3509 244.4141 83.535 244.4267 83.7319 244.1149 84.3191 241.052 84.8121 240.1373 85.1644 239.4389 86.0614 237.6258 90.4083 236.0163 93.2239 235.6386 93.3733 235.3285 92.4255 234.6488 93.2245 233.4068 93.3982 234.3756 94.2859 235.0987 94.2166 235.1373 94.6906 235.7684 95.338 235.4747 95.7927 235.3358 96.0061 234.7205 96.3488 234.475 97.151 233.8033 97.5647 233.7972 98.8461 234.0373 99.7717 233.9409 100.4569 233.5663 100.1901 233.0408 98.9202 232.2248 99.2585 231.4639 99.0767 231.0904 99.2573 231.1504 100.7533 231.9918 105.6591 231.69 106.0852 231.13 106.3558 231.402 106.8292 232.1815 106.9119 232.5977 107.4613 233.4668 109.9004 234.2337 110.5614 235.3903 110.4943 235.6778 110.7493 237.1618 112.0704 237.6329 112.1 238.0016 111.8882 238.9639 110.3123 240.0066 111.4786 241.3146 112.415 242.4397 112.8013 244.6898 113.3503 246.1351 113.211 246.8672 112.7557 248.0794 112.3938 250.2319 113.6284 250.6831 113.6675 251.9209 113.7759 252.0098 113.9228 251.079 115.2703 250.9778 116.373 250.4647 116.0611 250.1055 116.1117 249.733 116.5162 249.36 116.4717 248.4627 115.6055 247.8435 116.141 246.9881 115.3328 244.3644 114.0683 243.7814 114.1815 242.4362 115.8753 241.891 116.0159 241.3205 115.3281 240.3962 115.1695 239.9008 115.1832 239.2679 115.2004 238.5136 115.9463 238.1156 115.2983 236.5151 114.851 235.2045 115.0027 234.7621 115.3849 234.5497 116.4078 234.2608 116.4803 233.693 115.1512 233.3101 114.8205 232.9231 114.907 232.6579 115.3601 232.2334 115.4199 230.7761 114.6002 230.0059 114.3564 229.3902 114.4753 228.3287 115.3923 228.0469 116.393 227.3776 117.2556 226.8974 117.0283 226.3361 116.7621 225.4218 116.6658 225.2033 116.9857 225.1973 118.4906 225.5963 119.3634 225.9328 119.6047 226.9764 119.233 227.5852 118.4111 227.8465 118.3748 228.802 119.8419 229.4229 120.2028 230.2907 120.2088 231.246 119.9143 232.899 118.9451 233.741 117.8981 234.2185 118.6319 235.3613 118.6949 236.351 118.4287 237.8654 118.2789 238.5 118.5104 238.2961 118.9231 237.0785 119.0296 236.4402 118.644 236.3099 119.4583 236.512 120.1349 236.9972 120.0338 237.5837 119.5034 237.9338 119.8385 238.638 119.8677 239.4253 119.3402 241.4822 119.2756 242.2336 119.6181 243.9695 119.8555 244.4605 119.321 245.0865 118.6415 246.6805 117.9375 247.0816 118.1687 246.4587 119.3452 246.8649 119.3836 247.4501 118.1817 247.8881 117.9922 249.0603 118.6917 249.8066 118.7785 250.5244 118.2303 251.6583 118.6792 252.4087 118.3495 252.646 117.9317 252.8349 116.5288 254.0942 116.2556 254.426 116.9135 254.6824 116.8451 255.2175 115.9701 256.0873 116.1125 256.4823 116.1767 257.2855 117.0883 257.9107 117.2568 259.7671 116.9649 260.5973 117.3928 261.7171 117.5235 263.0563 118.2325 263.4478 117.9533 264.7771 117.9272 265.4719 117.6693 267.0709 116.5481 268.1623 116.4918 268.7881 117.5563 268.5359 117.6552 268.0834 117.3035 267.8833 117.5226 268.0749 117.9121 267.3899 118.9051 267.0978 118.398 266.741 118.1319 266.0971 118.0613 266.0415 118.3583 266.7127 118.9239 266.6862 119.1001 266.6354 119.4276 266.9578 120.0222 266.8787 120.3859 266.2216 121.1185 265.8503 122.419 265.1183 122.875 264.6862 123.7685 263.5016 124.0944 263.2597 124.4804 264.1641 124.2893 265.2943 125.3808 266.0539 125.3372 266.7012 124.7662 267.3019 123.6571 267.4978 124.0784 267.3595 124.4806 267.3117 124.617 267.7692 125.0008 267.5182 125.3248 265.9338 126.0911 264.9882 126.8972 264.3629 126.7277 263.2111 126.826 261.465 128.2881 261.0777 128.3749 260.6577 128.0175 259.8513 128.194 259.5393 128.5587 258.6817 128.6154 257.6723 130.3263 254.9927 130.8959 255.0167 131.2765 255.3855 131.5128 255.902 131.1836 256.2892 131.3216 256.3823 131.0523 256.7315 130.9394 257.4776 131.2513 257.6136 131.4882 257.5144 131.8195 257.4139 132.1572 257.6809 132.8246 257.3133 133.2608 257.4536 133.7537 257.0348 134.0694 256.1164 134.1664 255.9678 134.7321 256.5094 135.2329 256.9144 134.8233 257.464 134.7139 258.395 133.5896 258.3796 132.5988 258.9811 132.8341 259.7147 133.9488 260.4611 134.2607 261.4953 133.8269 265.5872 133.3486 266.8699 133.6818 267.462 133.8538 268.5383 133.7033 269.4664 133.8934 270.2439 133.3033 270.906 133.2749 272.0948 133.6526 272.757 133.6237 273.9029 132.822 275.1429 132.6484 276.0471 132.9056 276.9849 133.6073 277.278 133.5656 277.5666 133.0448 278.1361 133.5103 278.4855 133.846 279.529 134.3233 279.6654 134.3849 280.5181 134.2975 281.152 134.5292 282.457 134.5705 282.9239 135.0179 283.4639 134.8459 285.469 136.2308 285.7672 135.7726 286.4851 136.3446 286.928 136.4107 287.5801 136.0956 287.8136 136.3188 287.6318 136.6641 287.8506 136.7945 288.3215 136.6002 288.6199 137.4873 288.886 137.706 289.3798 137.6691 290.5775 139.0074 291.1885 138.8576 291.5751 139.6687 292.4186 139.9675 291.426 140.5116 290.2009 140.9511 289.912 141.4732 290.3223 141.9924 290.5366 141.6423 292.6475 141.5058 292.9085 141.6937 292.2511 142.2028 292.89 142.6899 293.0857 143.3357 293.7378 143.9175 294.3256 144.0596 294.6702 143.9153 294.968 143.4571 294.8707 143.2466 294.0266 143.1716 293.5282 142.729 293.6354 142.329 294.1805 142.1891 294.5621 141.398 295.1167 141.9932 296.2817 141.7658 296.5755 141.0517 296.3562 140.473 294.8185 139.7592 294.4548 138.8807 294.438 138.2562 294.4175 137.5077 293.8536 135.9529 293.9981 135.3558 294.6735 134.2992 294.7573 133.7431 294.3378 133.3857 294.4034 133.1523 295.2327 133.1319 296.1045 133.6184 296.8266 133.7735 298.104 134.9725 298.5937 135.8014 298.7702 140.1355 299.3419 139.7842 299.4627 139.442 299.8807 138.9396 299.1803 137.7384 299.264 136.9575 300.3035 135.2096 300.3737 134.3339 299.9362 132.7289 300.4912 131.0815 301.2972 131.1295 301.4976 132.2547 301.9729 132.765 304.485 133.9824 305.1703 134.1118 305.5994 132.5134 305.1803 131.7067 305.1062 129.6352 305.3719 128.9567 305.9084 128.9776 306.0202 128.6101 307.4841 127.9248 308.0622 128.9012 309.4559 128.8668 310.5889 128.4197 311.5722 128.7621 312.1271 128.6845 311.4418 128.1081 311.4612 127.7851 312.4589 126.8763 313.7824 127.9401 314.8362 127.8571 316.1596 128.6981 316.8497 128.6332 318.0844 129.1012 318.3584 130.056 318.8157 129.9917 319.0532 129.5736 318.8909 128.6995 317.297 128.0583 315.9598 128.0211 315.3027 126.9595 314.2081 126.4123 313.63 125.5592 312.7913 124.8442 312.7216 124.1491 312.9834 123.6648 313.7012 123.3399 314.0985 122.8677 314.4896 122.8136 314.541 123.3831 314.8486 123.4358 315.8837 122.7783 316.3452 123.1944 317.8418 123.1775 318.4532 122.8039 318.2828 125.4856 318.059 125.5489 316.6335 124.6917 316.1153 124.7957 316.451 125.2618 317.9 126.0519 318.277 126.5988 318.6119 126.5225 319.4238 126.3733 318.898 125.5918 319.0848 125.2773 319.7379 124.9619 319.7332 124.7069 319.1039 124.7301 319.0915 123.2904 320.8685 122.9148 322.5755 121.8435 324.1937 121.7452 324.2818 122.1178 323.3628 122.6619 322.7467 123.4524 322.5036 124.2877 322.9064 126.7929 323.7834 126.4148 324.2686 126.3143 323.3227 125.3255 323.3609 124.9038 323.8596 124.8981 323.4362 123.6126 323.8379 122.9477 324.4863 122.6014 325.4653 122.6888 326.3753 122.5295 326.5704 122.7266 326.5639 124.4884 326.955 125.331 327.4834 125.1863 327.517 124.5615 328.8932 126.2778 328.0271 128.9923 328.2569 131.9077 327.6923 132.5958 328.1207 133.2409 328.961 131.9373 330.0944 131.2663 330.9114 130.2561 331.9499 129.7788 331.0665 131.1016 330.5914 131.9683 329.9805 132.5318 328.973 133.1531 329.3454 133.5353 331.1928 132.003 331.6794 130.7899 333.1859 129.6137 333.4203 130.0137 332.7583 131.6802 331.4233 132.3744 330.9167 133.0154 329.6505 133.8755 330.1083 134.2978 330.8764 133.796 334.4607 131.4817 334.6094 131.6915 334.2704 132.2537 332.8985 132.8954 332.908 133.181 334.4718 132.6289 331.8523 134.7454 332.1821 135.0287 332.7497 134.8935 333.3389 134.5297 334.6537 134.1866 335.1282 134.6966 335.3517 134.6333 335.5529 133.9646 337.2701 132.7315 337.7165 133.5022 337.8714 132.5191 338.5578 131.7512 340.3628 130.8897 341.2295 130.897 342.2933 130.2044 342.6803 130.1183 343.8265 130.4384 344.6145 130.1363 345.3227 130.1973 346.4771 131.0297 346.6884 130.4237 349.6862 127.6986 350.8076 126.0372 351.6899 125.213 352.7419 124.2302 354.4249 122.075 357.4341 118.9655 358.0537 119.328 358.3699 119.8952 358.5505 120.2189 359.3562 120.4908 359.8255 121.1941 361.4188 121.6125 362.4328 122.6246 364.6036 123.1228 365.5464 122.7351 365.5942 122.3758 364.2511 122.5304 362.6668 122.1756 362.3598 121.8974 362.3209 120.718 362.6475 120.4484 363.4315 120.3396 364.059 119.1634 364.6698 119.2388 365.474 119.959 365.9404 119.9577 366.6523 118.6744 367.0585 118.4893 368.3295 119.2091 369.6484 119.3458 370.8358 119.949 372.9493 119.3664 373.3607 119.3922 373.5878 119.4055 374.4123 118.203 375.5516 117.5641 376.548 116.6252 377.0186 116.6557 377.4862 117.8077 378.5006 118.3701 379.0253 119.2254 378.7849 119.8677 377.473 120.4665 376.2063 121.6033 376.3644 121.7734 377.0498 121.6776 377.0988 122.4713 377.4067 122.5247 377.6077 122.3047 377.6858 121.0128 378.5822 120.7606 379.4793 120.0595 379.5129 120.0741 380.3314 120.4206 381.6474 120.0778 381.8613 120.1758 381.8696 120.4635 381.2887 121.281 381.4515 121.4826 381.8481 121.4591 382.0039 122.3017 382.6038 122.9081 382.7708 124.3726 384.0047 124.8416 384.2765 124.42 384.1821 123.3122 383.637 123.2273 383.1628 122.7176 382.6476 122.1481 382.6818 121.6956 382.2737 120.9516 382.6947 120.4123 383.2647 120.2053 384.5672 120.9213 384.9185 120.5833 383.7457 119.8501 382.8699 119.556 383.1905 118.5503 383.5873 118.3032 384.1817 119.1817 385.8801 120.0981 386.5425 120.0701 388.0082 119.3861 388.1147 119.4478 389.4645 120.2404 391.6568 119.9672 392.2057 120.3071 392.3439 120.8006 391.8808 121.2817 392.1455 121.5008 392.8038 121.2175 393.8589 122.0629 395.0779 122.6616 396.2579 122.5297 397.1474 122.6944 398.611 124.061 398.9162 124.5627 398.7688 125.3844 397.0538 127.7997 397.3736 128.3968 398.8596 126.012 399.5617 125.3376 400.2575 126.234 401.203 126.3265 401.5328 126.5379 402.2032 127.9494 402.0702 128.641 402.5965 129.9771 402.8998 129.7752 403.0811 128.7249 403.348 128.496 403.5784 129.1685 403.5702 130.034 404.1132 130.5676 403.7805 132.1835 403.4147 132.8751 402.5518 133.1231 402.4676 133.3444 402.3592 133.6309 403.3524 133.3644 403.8764 133.4194 404.3126 132.0757 404.588 131.9927 404.4956 130.972 405.2122 130.2798 405.5975 130.8254 405.4899 131.4369 404.7389 132.2251 404.8823 132.5743 404.7753 133.1854 403.9701 133.7511 403.8381 134.1937 404.5372 134.1934 404.6894 133.9476 405.4278 132.7552 406.1808 132.2029 408.544 131.9707 408.8075 131.2607 409.2653 130.9735 410.2352 130.7741 410.3957 130.2714 411.7898 129.0857 413.1996 128.4732 413.6016 129.1861 413.8215 129.092 413.8952 128.2166 415.163 129.1616 416.1561 129.1206 416.9264 128.6929 417.3351 128.9883 417.9457 129.8681 418.5112 130.6833 418.9266 130.5612 419.75 129.807 420.4446 129.7748 420.8307 130.8419 421.3499 131.4432 422.1674 132.0337 423.4109 132.1179 426.0207 134.0635 426.433 134.6142 426.8696 135.8037 426.8222 137.0925 427.5205 137.0918 427.6268 137.3653 427.1874 138.7084 427.0618 140.09 426.5872 139.4162 425.8379 140.4337 425.6532 141.0035 426.1766 141.6363 425.9751 142.491 425.6086 142.8423 425.6296 143.311 425.8886 143.3374 427.2316 141.1059 427.5895 141.0941 427.8277 141.0868 428.6687 141.6114 429.5068 141.6553 430.1706 142.108 432.3601 142.0613 434.4678 140.5184 436.2192 138.5769 437.416 136.7126 438.7926 136.3294 439.3168 134.8792 439.7599 134.7221 439.7287 135.4308 439.4324 135.9208 439.8451 136.386 439.7734 137.6038 440.2977 138.0124 440.6647 138.2499 440.9521 139.332 441.0468 140.9215 440.7912 141.6938 441.1579 141.9317 441.6182 141.1946 441.4892 138.2 440.8115 137.6525 440.3001 136.5243 440.363 136.1443 441.1221 136.1033 441.534 135.7259 442.1937 135.2175 442.5179 135.6219 442.612 136.2814 442.9584 136.8426 443.6486 137.6957 443.9528 137.2817 443.3097 136.5055 443.1255 135.2174 443.7687 135.0642 444.3598 135.239 445.1009 136.0009 445.1522 136.8273 445.5937 137.1185 446.2279 136.9029 447.2395 137.6924 447.1435 138.1862 447.3539 138.5099 448.3114 138.4409 449.1555 139.0348 449.606 139.3515 450.2741 139.8278 451.3878 139.7136 451.7201 140.3524 452.0143 140.4493 452.381 140.0554 452.9965 139.884 453.2183 141.2957 453.5891 141.5018 454.004 140.9975 454.575 140.3815 455.0173 140.3078 455.0247 140.7125 454.1483 141.8048 454.4959 141.9844 455.0029 141.9698 454.9722 142.4006 455.3633 142.4092 455.8336 141.972 456.0449 142.0337 455.6197 142.944 456.015 143.3141 456.5605 143.317 457.6496 142.8435 458.2861 142.2485 459.1859 142.2202 459.527 142.3251 459.5397 142.6535 457.7545 143.1595 457.5719 143.4241 457.6316 143.8667 458.4445 143.6546 458.6637 144.2415 458.9011 144.3474 459.0663 144.3385 459.1286 143.61 459.8907 143.1203 459.9866 142.6255 460.0577 140.7896 461.0499 141.4531 461.7097 143.2849 462.5475 144.2598 462.7164 144.7488 462.0977 145.5393 461.8382 145.3514 461.9442 144.6954 460.7972 142.4815 460.7455 144.2198 460.2468 147.2005 460.1283 147.5916 459.9094 147.927 460.1036 148.3134 461.2095 147.7146 462.3289 147.3991 462.4341 147.6732 461.8967 148.1006 461.8038 148.8503 462.1349 149.5422 461.7257 149.4707 459.827 150.1503 460.7136 150.4281 461.3027 150.2354 461.3643 150.9 461.6923 151.3349 462.3861 151.3041 462.8951 150.912 463.4304 150.9342 463.7396 151.469 464.2999 151.1991 464.7646 152.1291 465.4195 152.2944 466.532 153.103 466.9519 153.0127 467.1395 152.6979 467.5026 152.6804 467.6454 152.9805 468.0019 154.0861 468.2076 153.8978 468.3289 153.1106 468.1208 152.8187 470.0968 152.4495 470.8425 152.3143 471.0827 152.6021 471.4382 152.2962 471.9915 152.4446 472.3234 152.2062 472.6092 152.5833 473.205 152.5648 473.8466 151.9308 474.7129 151.94 480.472 153.8698 483.1492 153.7568 483.5685 153.6668 483.7149 153.2929 483.131 152.925 483.3116 152.3225 483.0506 151.6529 483.2935 151.4916 483.6823 151.9454 484.7678 153.2124 485.1144 153.5494 485.483 153.3379 485.7605 153.6518 485.1201 154.7672 485.2419 155.392 485.5948 155.5357 485.9523 156.4158 486.3432 156.3621 486.3711 155.6209 485.8778 154.9513 486.1507 154.5284 486.4056 154.6851 486.8856 154.5553 487.2039 154.928 487.5227 154.5954 487.0217 153.6383 486.5665 153.4771 486.729 153.0351 487.7022 152.8068 488.554 152.347 488.7676 152.8201 488.6755 153.3457 489.0505 153.6462 488.8067 154.0335 489.149 155.0439 489.1117 155.7234 489.5004 156.1187 489.8873 155.3275 489.6436 154.7838 489.6923 153.7183 490.5967 154.9405 491.1793 154.8283 491.4221 156.0776 491.265 156.6124 490.9375 156.8824 490.9347 157.3317 491.8087 156.6976 492.2033 157.6054 493.0375 156.6883 493.8705 156.7016 494.4216 156.3697 496.3072 157.0075 496.7098 156.5664 497.7588 157.6405 498.1442 158.4857 498.4924 157.893 497.8954 156.7238 500.365 156.3197 500.794 156.7737 501.2185 156.7149 501.9443 156.6787 502.6369 156.1664 503.9959 154.7277 505.6891 153.5325 505.8785 153.6981 505.8979 154.3058 506.7858 154.4714 506.8734 153.9144 507.4308 153.3887 506.976 153.2259 507.0488 152.094 506.5353 151.7474 506.5278 151.4603 507.0494 151.3881 509.2827 152.139 509.9952 152.008 510.7164 151.4601 511.168 151.3659 512.1108 151.6842 513.8621 152.0848 515.9077 151.7384 516.8984 151.2179 517.676 151.0779 518.1417 150.2181 518.5056 149.9456 518.8668 150.1558 518.696 150.6283 517.2223 151.8172 517.5949 151.8649 519.0239 150.8423 519.581 150.9116 519.8082 150.3993 520.3932 150.5437 520.1525 150.9612 520.2947 151.2629 521.0362 151.0963 521.5973 150.1217 522.1619 149.8825 522.1699 149.4654 523.2404 149.5105 523.9001 149.0027 524.1685 149.2538 525.0342 149.2637 525.2765 149.8068 525.9373 149.7807 526.0758 149.3444 526.541 149.345 526.6944 149.9641 527.0814 149.8795 528.0602 149.0388 528.6238 149.0254 528.2314 149.7854 528.9639 149.5561 529.2736 149.8661 530.2854 149.0218 530.4225 149.2908 530.2945 149.5659 530.778 149.6908 531.8923 149.3461 534.1633 149.4179 534.5088 149.2748 534.3967 148.713 534.8011 148.7527 535.2853 149.3537 535.6859 149.8497 536.1663 149.7196 535.9702 149.2662 537.6964 149.2535 537.8008 149.5269 537.3946 149.7117 537.5761 150.2955 537.2891 150.6236 537.7837 151.0688 538.0766 150.5473 538.4503 150.3682 538.6688 149.7924 539.1436 150.3371 539.6195 150.1749 540.2027 150.544 540.1621 150.9666 540.4076 151.0607 540.7814 150.8817 540.8043 149.8518 542.1166 150.9227 542.5453 150.8953 542.8556 150.5004 543.9108 151.1567 544.3868 150.9951 544.7116 151.6568 544.8741 152.8209 545.5956 152.7538 547.3161 151.7474 548.4413 152.4268 548.7116 152.9353 549.5889 152.5584 549.4833 152.989 549.8231 154.0011 551.1823 152.3072 551.7262 152.3924 553.1268 153.3876 554.2268 153.1717 554.4862 153.842 553.8668 154.4083 553.8459 154.7314 554.1889 154.8128 554.9973 154.4137 555.8111 155.0073 556.1261 154.6439 556.3211 154.1354 556.1707 153.7714 555.5805 153.4238 553.9292 152.2019 554.2671 151.7866 554.747 151.6569 555.0717 151.8369 554.7825 152.3898 555.7593 152.9612 556.2272 153.2178 556.9157 153.1554 557.3049 152.8451 557.3286 152.2966 556.3882 150.7898 556.4282 149.406 555.9077 148.2902 556.7209 148.4031 558.8673 149.2631 560.0092 150.0688 560.0862 150.3785 559.6578 150.4049 558.7507 149.8561 558.4336 149.9639 558.6791 150.5391 561.5048 153.066 561.7897 153.321 562.5035 153.6714 563.3964 153.6456 564.378 154.7299 565.4454 155.0011 565.6188 155.2978 566.1128 156.224 566.5068 156.4275 567.1127 156.2482 567.5803 156.9859 568.2416 157.4406 570.1697 158.171 571.1631 158.8683 571.891 158.6081 572.424 159.3372 572.7178 160.7414 572.6245 161.2683 572.1814 161.9061 571.3992 162.1796 571.4814 162.5157 571.9488 162.4657 572.1732 162.6562 571.6728 162.9774 571.8136 163.3799 572.3263 163.3929 572.4631 163.5675 572.3934 163.9068 572.0085 163.8743 572.0654 164.3325 572.6343 164.2193 573.1232 163.6708 573.0532 162.2037 573.9112 161.4447 575.0749 161.0272 576.7312 160.7044 577.3788 161.065 577.3925 161.6405 577.0123 162.0138 577.097 162.3881 577.9463 162.5283 578.3224 162.1235 578.5506 162.5734 578.3985 163.397 578.5918 163.5951 579.1205 163.3302 580.4891 164.1057 581.7686 163.9938 583.2025 164.7607 584.7215 164.9371 586.325 165.7695 586.581 165.9024 587.4413 165.8811 588.2778 165.4451 589.4575 163.647 592.395 163.2771 592.528 163.5159 592.1368 164.0504 591.0528 164.135 590.4679 164.4714 590.572 166.1907 589.6621 166.5726 589.5951 167.8947 589.5636 168.5119 588.5343 168.7495 587.7546 169.5944 587.2528 169.5674 586.7702 169.9219 587.3571 170.3235 587.9478 170.2745 590.2591 168.7377 592.1072 168.9017 592.1207 168.0333 593.0045 168.4263 593.9587 168.3599 594.8876 168.8422 596.0977 168.7083 596.5932 168.9296 597.6836 168.6523 598.3851 168.6845 599.0322 169.0457 599.5446 168.9118 600.5464 168.7102 601.3088 168.7019 601.7419 169.0202 602.4898 169.5681 603.1872 170.0507 604.0593 171.5691 604.487 171.5427 604.8567 170.8495 607.3504 170.1559 608.2351 169.1037 609.7209 168.8045 610.0273 168.3771 609.917 167.814 609.589 167.6016 608.4093 167.4741 607.9888 167.3075 607.921 167.0592 609.5804 167.0569 612.2406 167.8171 612.9597 167.9758 614.143 168.6174 615.1291 168.5469 616.2517 168.7469 617.4592 168.8388 619.2384 168.4992 620.4441 167.8524 621.5463 166.9322 622.6701 165.6868 624.3111 163.0998 624.8549 162.2419 625.3178 160.7668 626.045 159.5983 626.4513 159.1032 626.8583 158.9197 627.023 159.1538 626.2832 160.0578 627.4387 159.7713 628.8181 158.6841 629.2075 157.893 629.6228 157.7725 629.9037 157.638 630.2265 157.818 631.0072 157.4545 631.7324 157.4199 632.4718 156.9986 633.5752 157.2974 635.616 156.4411 637.2587 156.3139 639.6133 155.318 640.0789 154.8379 640.3485 154.8656 640.3121 155.5769 640.9028 155.5276 641.4598 155.2271 642.3206 153.987 643.8062 154.1692 644.1393 154.6703 645.7277 154.3895 645.3209 153.835 644.5254 153.8471 644.238 153.4372 642.6387 153.3981 642.2155 152.974 642.4165 152.4977 642.8231 152.3139 644.0509 152.3075 645.5547 152.1339 646.5994 152.2487 647.0048 152.5459 647.6288 153.2318 648.0095 154.0785 648.0674 155.483 648.5653 156.2171 649.1506 156.9488 649.3193 156.1469 648.8027 155.0292 648.7932 154.228 649.1102 153.1819 648.7429 152.6305 647.8707 152.075 647.5766 151.3777 646.2877 150.6868 645.9371 150.0607 645.904 149.3275 646.092 148.7558 646.4853 148.4779 646.9871 148.5056 647.2421 148.1828 647.7727 148.1746 648.0865 147.5536 648.4429 147.7297 648.5917 148.0944 648.3604 149.5707 649.3179 150.7555 649.5325 151.8489 649.2288 152.7895 650.5687 153.1198 650.7757 153.6696 650.6022 154.5917 651.2301 155.5554 651.6957 155.6813 651.7544 155.0126 651.1131 154.2015 651.3736 153.4276 651.1928 152.5856 650.5169 152.0038 650.0688 152.1291 650.1177 150.7752 649.09 148.8292 649.2853 148.0645 649.7727 147.7418 649.7262 148.8702 650.3814 149.2947 650.9438 150.5017 651.4414 150.4982 651.7968 149.937 651.8555 148.902 652.4183 148.8893 652.8185 149.6365 653.2476 149.8667 653.4591 150.4533 653.5676 150.7544 653.8325 150.7503 653.8853 149.4279 654.1104 148.8832 653.74 148.3563 654.0177 147.7089 655.5338 146.8924 656.023 146.8266 656.2748 147.9474 656.687 148.0517 656.8215 147.327 657.8277 147.1585 657.9637 147.4281 657.8023 147.7073 658.2941 148.1534 658.5426 148.761 658.8147 148.5639 658.6242 147.4024 658.9228 146.175 660.7353 144.3559 661.6739 144.4208 661.6717 144.3047 661.6685 144.133 660.9921 143.5515 661.5011 143.3858 661.5971 143.1159 661.9718 142.9369 661.9399 142.4602 662.7897 142.6011 663.5178 143.817 662.8891 144.3203 662.6724 144.927 663.4065 144.9556 663.7513 145.2936 664.4966 145.1594 664.6341 145.6872 664.4091 146.2309 664.5734 146.4646 665.0766 146.0119 665.5882 146.3594 665.9693 145.9871 666.1391 145.7708 666.9174 145.6332 667.5058 145.072 668.5251 144.9972 668.7796 144.6735 669.8416 144.1769 670.3434 144.2048 670.5877 144.7813 670.8112 144.719 670.9881 144.3095 671.0523 144.044 671.6335 143.6767 671.8139 143.0427 671.3179 140.3508 670.9226 140.3727 670.0677 138.4675 670.6293 138.1995 671.1693 138.5111 671.5447 139.1902 671.8286 139.7041 671.9852 141.6074 672.6117 142.8058 673.1305 142.96 674.6714 142.815 677.305 141.9117 678.2677 141.1715 678.7878 141.581 680.0139 141.3193 680.2695 140.9956 680.3393 140.2806 681.3853 139.9139 680.8913 138.954 681.1183 138.6672 681.92 139.1998 682.0974 139.5286 681.9551 140.4453 682.6491 140.672 682.9998 139.8227 683.5002 139.5947 683.5115 137.7 683.8354 137.1429 684.313 137.2383 684.5898 138.0672 685.2631 138.1362 685.6338 139.658 685.8206 139.5683 686.0743 137.5798 686.1117 137.2838 687.0595 137.6682 687.5314 138.2129 688.2617 138.2103 688.852 138.9003 689.4798 138.8787 690.1001 139.789 690.4531 139.4523 692.17 141.113 692.7694 141.1279 693.4642 140.6166 694.9974 140.665 696.3486 140.0968 696.5636 140.7091 697.4967 140.4863 697.7849 141.1533 698.3074 141.3387 698.4396 141.5778 697.8536 141.9142 697.5781 142.3358 697.7405 143.0519 698.0418 143.814 698.9627 142.7578 699.5338 142.809 700.3759 143.4014 700.8187 142.988 703.3074 142.4898 703.6143 141.8065 703.8798 141.8027 704.3099 142.2901 705.385 142.8828 708.0075 143.1366 709.5147 143.7357 710.1791 143.7417 710.1818 143.5169 709.5323 143.1236 704.9325 141.9817 704.2087 141.5343 703.6367 141.2265 702.8625 141.3951 702.6331 141.1693 701.9402 141.2001 701.6788 140.9785 701.775 140.7089 703.6673 140.7086 704.979 141.3337 709.9299 142.6196 710.7723 143.2117 712.4631 143.9456 712.9934 144.365 713.5385 144.7952 714.3458 144.8785 719.175 147.498 719.7926 147.9536 720.9775 148.8268 721.6321 149.5091 719.6811 149.8054 720.2584 150.401 720.7272 152.4242 719.9858 152.5889 720.213 153.297 719.8019 154.4435 720.1033 154.4671 720.5916 154.1443 720.9381 153.263 723.235 152.8239 723.4702 152.5991 723.5136 151.1813 722.896 150.526 723.1563 150.4904 727.6751 152.288 727.6033 152.7471 726.9798 152.7983 725.1103 151.9601 724.4047 151.8955 723.7941 153.0367 724.1261 153.5375 725.2138 153.4876 724.805 154.1524 725.0339 154.3785 726.0512 154.0479 726.6559 154.3515 727.1276 154.1595 728.0901 155.4098 728.449 155.6181 728.681 155.3618 729.2149 155.3869 729.656 155.7122 730.0063 155.6009 730.4387 155.863 731.7652 155.3635 733.1657 156.1696 732.9146 156.5244 731.6381 156.1504 730.8858 157.7294 730.3901 157.9889 730.4643 158.3002 730.7303 158.5539 731.5694 158.6325 732.5253 158.0859 733.1817 158.2866 733.9144 158.0592 734.3309 160.444 733.8608 161.1492 734.1677 161.4614 735.0717 161.5314 735.5875 162.1689 735.8026 161.7864 735.7177 160.8984 737.5432 161.1658 737.7811 161.4555 737.4013 162.3413 737.9303 163.3299 738.2287 163.5785 738.6198 163.5261 738.9349 163.9013 739.4558 165.0829 740.0137 165.0406 740.2207 165.8476 740.5912 165.8937 741.0536 165.3824 741.7672 165.5106 742.031 165.2502 743.4232 164.8277 743.6207 164.9361 743.5632 165.2114 743.1481 165.5774 744.4498 166.0369 745.4069 166.2083 745.2503 166.9857 745.0933 167.3422 745.547 168.4109 745.8159 166.7947 746.2589 166.3823 747.2564 166.4084 748.4417 165.349 748.978 166.1439 749.4511 166.2081 749.6281 166.7954 749.1143 167.5817 748.3077 167.8409 747.9146 168.3757 747.8884 168.9251 748.2933 169.4809 748.6585 168.9824 749.3774 168.6603 750.0618 168.5684 750.4883 168.2861 751.1441 167.233 751.7225 167.0906 752.2409 167.503 752.0536 168.8454 751.5606 168.6235 751.1213 168.8107 751.778 170.2648 751.5592 170.6155 751.9911 170.8779 752.3236 170.3841 752.724 170.6509 753.1514 170.6261 754.0132 170.124 754.5096 170.1209 754.9343 170.5781 755.2458 169.925 755.6234 170.7747 756.2966 171.1016 756.6345 171.1521 757.0109 170.4914 756.7165 170.017 755.8473 169.4593 755.9359 169.1257 756.5382 169.1731 756.8748 169.4113 757.4894 169.8485 757.9038 169.4711 758.5071 169.7748 758.6469 168.9948 759.3639 168.985 759.6337 169.2699 759.1517 170.1379 759.3399 170.5627 760.2624 169.7637 762.3333 169.3886 763.3839 169.3113 764.0351 169.2239 764.5974 169.4691 765.5365 170.3066 766.1555 170.2237 766.9551 170.7582 767.4595 170.8189 767.9296 171.3662 768.3527 171.3096 769.2249 171.6416 769.7071 172.2842 770.1915 172.1866 770.9909 172.7218 772.0872 172.9924 772.7286 173.8379 773.7439 174.5053 774.7864 174.6217 775.9324 175.5286 777.4842 175.9948 778.0611 176.8498 779.5049 178.0063 780.3245 178.6999 781.8606 180.8074 782.6627 182.3715 782.9918 182.3597 783.1481 181.2777 783.6214 181.8571 783.8849 182.851 784.4603 183.7057 784.564 184.2386 784.1405 184.2958 784.1369 184.5213 784.4029 184.7753 785.0815 184.6517 786.6338 186.887 787.4167 187.5542 789.0436 187.3355 789.187 187.6706 788.7288 188.214 789.2946 188.4916 790.0688 187.3266 790.6099 187.1569 793.4746 187.2874 793.9937 186.7034 793.8302 184.6993 794.0103 183.5496 794.7998 181.7395 794.8359 181.3933 794.9032 180.7599 794.5221 179.8795 793.3182 180.0412 791.8643 179.56 790.9939 179.7418 790.2924 180.7042 789.983 180.6174 789.9435 179.5608 790.3091 179.3195 791.6474 179.1721 793.9069 179.4791 795.0166 178.8477 798.5052 179.4408 799 179.5871 799 192.39 1 192.39 1 50.5427 1.8124 49.8558 2.3247 48.8876 3.5163 47.5683 4.2879 46.3394 4.8818 45.872 5.9775 43.9597 6.619 43.2249 7.2197 42.5372 8.5325 40.3066 9.4232 39.1899 11.0562 35.4138 15.404 30.0087 16.0413 28.769 16.1582 28.6262 20.9606 22.7439 21.5453 21.3852 23.8451 18.4123 25.6008 16.6329 26.9402 14.7859 28.1758 13.081 30.1508 11.6219 31.2144 10.3246 32.8021 9.3672 35.8337 6.7718 37.497 5.8682 40.4506 4.6552 41.0014 4.28 41.7482 3.7716 42.6952 1.9501 42.4166 1.2563 42.8784 1 43.5529 1.0324 44.283 1.407 Z"/>
</g>
</svg>