<svg version="1" xmlns="http://www.w3.org/2000/svg" width="682.667" height="682.667" viewBox="0 0 512.000000 512.000000"><path d="M239.8 3.7c1.2.2 3.2.2 4.5 0 1.2-.2.2-.4-2.3-.4s-3.5.2-2.2.4zM268.3 3.7c1.5.2 3.7.2 5 0 1.2-.2 0-.4-2.8-.4-2.7 0-3.8.2-2.2.4zM233.8 4.7c.7.3 1.6.2 1.9-.1.4-.3-.2-.6-1.3-.5-1.1 0-1.4.3-.6.6zM277.8 4.7c.7.3 1.6.2 1.9-.1.4-.3-.2-.6-1.3-.5-1.1 0-1.4.3-.6.6zM286.8 5.7c.7.3 1.6.2 1.9-.1.4-.3-.2-.6-1.3-.5-1.1 0-1.4.3-.6.6zM216.8 6.7c.7.3 1.6.2 1.9-.1.4-.3-.2-.6-1.3-.5-1.1 0-1.4.3-.6.6zM294.8 6.7c.7.3 1.6.2 1.9-.1.4-.3-.2-.6-1.3-.5-1.1 0-1.4.3-.6.6zM210.8 7.7c.7.3 1.6.2 1.9-.1.4-.3-.2-.6-1.3-.5-1.1 0-1.4.3-.6.6zM300.8 7.7c.7.3 1.6.2 1.9-.1.4-.3-.2-.6-1.3-.5-1.1 0-1.4.3-.6.6zM205.8 8.7c.7.3 1.6.2 1.9-.1.4-.3-.2-.6-1.3-.5-1.1 0-1.4.3-.6.6zM305.8 8.7c.7.3 1.6.2 1.9-.1.4-.3-.2-.6-1.3-.5-1.1 0-1.4.3-.6.6zM232.5 12.7c-17.2 1.8-36.8 6.2-54 11.9-10.7 3.5-33.6 13.3-37 15.8-1.5 1.1-.4 3 10.9 18.4 6.9 9.4 12.6 17.7 12.6 18.4 0 .7-2.1 9.5-4.7 19.6l-4.8 18.4-22.5-.7c-12.4-.4-22.8-1-23.1-1.4-.3-.3-3.9-8.9-7.9-19.1-4.1-10.2-7.6-18.8-8-19.2-.3-.4-4.3 3-8.9 7.6l-8.3 8.3 11.1 15.1L99 120.9v13.8c0 11.7.6 17 3.9 34.7l3.9 20.9 12.7 12.7 12.6 12.7 1.5 16.2c.7 9 1 16.9.6 17.5-.4.7-6.7 9.4-14 19.4L107 286.9l20.2 31.8c11.1 17.5 20.2 31.9 20.3 32.1.2.2 9.5-.7 20.8-1.9l20.5-2.1 12.9 7.9c11.2 7 29.1 17.6 61.9 37 5 2.9 9.7 5.3 10.4 5.3.7 0 6.7-3.2 13.3-7l11.9-7.1 18.7 6.2c10.2 3.4 26 9 35.2 12.4l16.5 6.3 21.5-4.8 21.4-4.8 14 8.3 14 8.4 4.2-4.7c2.3-2.6 4.2-5.2 4.3-5.8 0-.7-4.7-4.9-10.4-9.5-5.8-4.6-10.5-8.6-10.5-8.9 0-.3 2.9-2.5 6.6-4.9l6.7-4.4 11.9 1.7c8.3 1.2 12.3 1.4 13.1.7 1.8-1.5 12.8-23.7 17.1-34.6 5-12.5 10.1-30.4 13.2-46.4 2.1-11.3 2.6-17.4 3-36.3.4-14.2.1-26.4-.7-33-11.3-98.3-79.5-179.4-174.5-207.3-22-6.5-37.8-8.7-64.5-9-12.9-.2-25.3-.1-27.5.2zm-37.4 18.9c2.4.5 2.7 1 3.2 7.2.9 9.4 2.1 28 2.2 32.2v3.5l-7.9 2.2c-4.4 1.3-8.3 2-8.7 1.6-2.6-3-26.1-33.7-26.5-34.6-.2-.7 4.5-3.7 11.8-7.4 13-6.6 14.6-6.9 25.9-4.7zm31.1 90.6l2.7 17.2-6.1 5.5c-3.4 3.1-7.2 6.5-8.6 7.5l-2.4 1.9-8.9-8.9c-10.1-10-9.7-8.2-5.8-22.5l2.1-7.7 11.6-5c6.4-2.8 11.9-5.1 12.2-5.1.3-.1 1.7 7.6 3.2 17.1zm-60.8 9.7c3.9.6 4.5 1.4 28.8 35.1 16.9 23.5 24.4 34.6 23.5 35.1-1.7 1-55.5 21.9-56.2 21.9-.7 0-36.2-32.4-40.5-36.9-2.1-2.2-3-5.2-5.4-18.1l-2.9-15.4 1.8-9.5c2.8-15.2-.2-13.7 25.1-13.3 12 .2 23.6.7 25.8 1.1zm70.4 88c5 1 9.4 2 9.7 2.3.3.3-1.9 5.6-4.9 11.9-10.8 23-20.6 43.3-21.1 43.7-.2.2-5.1-3.5-10.9-8.2-9.7-8-10.9-9.4-16.6-19.3-3.3-5.8-5.9-11.1-5.7-11.6.4-1.3 36.7-20.6 38.7-20.6.8 0 5.7.8 10.8 1.8zm56.2 22.9v11.8l-6.5 4.7-6.5 4.7-13.5-1.4c-7.5-.7-13.8-1.6-14.1-1.9-.3-.3 2.9-6.8 7.1-14.6l7.6-14 6.2-.3c3.4-.2 9.2-.4 13-.6l6.7-.3v11.9zm-110.1 24.1c10.5 17.8 19.1 32.9 19.1 33.5 0 1.2-10.8 31.8-11.5 32.4-.2.2-8.5 1.2-18.5 2.1-14.9 1.4-18.3 1.4-19.2.4-.6-.8-7.5-12.3-15.3-25.7l-14.2-24.4 19.9-25.7c11-14.1 20.1-25.5 20.3-25.3.2.2 8.9 14.9 19.4 32.7zm132.2 24.6c10.7 6.5 19.8 12.1 20.3 12.6 1 .9-42.2 22.2-43.9 21.5-.6-.2-1.8-2.8-2.8-5.7-.9-3-3.7-11.5-6.1-19l-4.3-13.7 7.1-4.1c3.9-2.3 7.8-4 8.7-3.8.8.2 10.3 5.7 21 12.2zm-46.3 22.8c4 10 7.2 18.7 7.2 19.2-.1.6-9.1 7.3-20.2 14.9l-20.1 14-4.1-2.4c-9-5.2-30.6-19.2-30.6-19.9 0-.4 3.1-9.4 6.9-20.1l6.8-19.5 8.4-.8c4.6-.4 14.9-1.4 22.9-2.1 8-.7 14.8-1.4 15.1-1.5.3 0 3.8 8.1 7.7 18.2zm203 8.1l10.9 14.9-7.9 11.8c-4.4 6.6-8.2 11.9-8.6 11.9-3.6 0-37.6-4.1-38.1-4.5-.3-.4-.6-9.9-.6-21.3v-20.6l16-3.7c8.8-2 16.3-3.6 16.7-3.5.3 0 5.5 6.8 11.6 15zm-91.5-4.6c15.2 2.7 27.9 5.1 28.2 5.3.5.5 2.5 39 2.5 47.9v5.6l-18.1 8.4c-9.9 4.7-18.6 8.6-19.3 8.8-.7.2-9.9-3.6-20.3-8.4l-19.1-8.7-2.7-16.8c-1.5-9.5-2.3-17.4-1.8-18.2 2.7-4.7 21-28.7 21.8-28.7.6 0 13.5 2.2 28.8 4.8zm-62.7 36c2.2 10.6 3.8 19.2 3.6 19.2-.2 0-3.8-1.2-7.9-2.7l-7.6-2.7-5.9-12.3c-3.2-6.9-5.9-12.9-6.1-13.5-.2-1 17-7.9 18.8-7.4.5.1 2.8 8.9 5.1 19.4zm-30.6 1.4c2.9 5.1 6.1 10.7 7.2 12.4l1.8 3.2-11 8.2-11 8.2-12.6-8.8c-11.4-8-12.5-9-10.8-10.1 1.1-.7 8.2-5.9 15.9-11.7 7.7-5.7 14.3-10.5 14.6-10.5.4-.1 3 4.1 5.9 9.1zM407 53.4c0 .2.8 1 1.8 1.7 1.5 1.3 1.6 1.2.3-.4s-2.1-2.1-2.1-1.3zM94.9 61.7c-1.3 1.6-1.2 1.7.4.4.9-.7 1.7-1.5 1.7-1.7 0-.8-.8-.3-2.1 1.3zM87.4 68.2l-1.9 2.3 2.3-1.9c2.1-1.8 2.7-2.6 1.9-2.6-.2 0-1.2 1-2.3 2.2zM426 69.5c1.3 1.4 2.6 2.5 2.8 2.5.3 0-.5-1.1-1.8-2.5s-2.6-2.5-2.8-2.5c-.3 0 .5 1.1 1.8 2.5z"/><path d="M442 85.5c1.3 1.4 2.6 2.5 2.8 2.5.3 0-.5-1.1-1.8-2.5s-2.6-2.5-2.8-2.5c-.3 0 .5 1.1 1.8 2.5zM67.4 88.2l-1.9 2.3 2.3-1.9c2.1-1.8 2.7-2.6 1.9-2.6-.2 0-1.2 1-2.3 2.2zM61.4 95.2l-1.9 2.3 2.3-1.9c2.1-1.8 2.7-2.6 1.9-2.6-.2 0-1.2 1-2.3 2.2zM449 93.4c0 .2.8 1 1.8 1.7 1.5 1.3 1.6 1.2.3-.4s-2.1-2.1-2.1-1.3zM26.7 173.2c-1.1 4 4.5 7.9 6 4.2.5-1.4-3.1-6.4-4.8-6.4-.3 0-.9 1-1.2 2.2zM22.6 185.6c-.6 2.4.1 3.5 6.6 10.1 4 4 8 7.3 9 7.3 4 0 2.6-2.7-5.9-11.2-9-9-9-9-9.7-6.2zM18.8 199.4c-.4 2 1.7 4.6 12.8 15.7 9.3 9.3 13.7 13 14.8 12.6.9-.4 1.6-1.2 1.6-1.9 0-1.3-26.9-28.8-28.1-28.8-.4 0-.9 1.1-1.1 2.4zM503.1 204.6c0 1.1.3 1.4.6.6.3-.7.2-1.6-.1-1.9-.3-.4-.6.2-.5 1.3zM8.1 208.6c0 1.1.3 1.4.6.6.3-.7.2-1.6-.1-1.9-.3-.4-.6.2-.5 1.3zM504.1 209.6c0 1.1.3 1.4.6.6.3-.7.2-1.6-.1-1.9-.3-.4-.6.2-.5 1.3zM16 213.8c0 2.3 3.3 6.1 18.5 21.2 17.5 17.4 18.6 18.3 20.2 16.7 1.7-1.6.7-2.8-17.7-21.2C26.3 219.8 17.2 211 16.8 211c-.5 0-.8 1.3-.8 2.8zM7.1 214.6c0 1.1.3 1.4.6.6.3-.7.2-1.6-.1-1.9-.3-.4-.6.2-.5 1.3zM505.1 215.6c0 1.1.3 1.4.6.6.3-.7.2-1.6-.1-1.9-.3-.4-.6.2-.5 1.3zM6.2 221c0 1.4.2 1.9.5 1.2.2-.6.2-1.8 0-2.5-.3-.6-.5-.1-.5 1.3zM14 228c0 3.3 2.2 5.8 34.5 38 32.7 32.7 34.6 34.3 36.2 32.7 1.7-1.6-.1-3.6-34.5-38C15 225.5 14 224.6 14 228zM5.1 230.6c0 1.1.3 1.4.6.6.3-.7.2-1.6-.1-1.9-.3-.4-.6.2-.5 1.3zM507.7 235c.3 3 .7 5.7.9 5.9.7.8.2-6.4-.6-8.9-.6-1.6-.7-.6-.3 3zM4.3 237.5c0 2.2.2 3 .4 1.7.2-1.2.2-3 0-4-.3-.9-.5.1-.4 2.3zM13 244c0 3.3 2.3 5.8 33.9 37.4 24.5 24.5 34.3 33.7 35.5 33.3.9-.4 1.6-1.2 1.6-1.9S68 295.5 48.5 276C14 241.5 13 240.6 13 244zM12 261c0 3.2 2.4 5.8 33.3 36.7 32.1 32.3 36.1 35.7 37.4 31.8.2-.6-15.7-17-35.2-36.5C13.2 258.7 12 257.6 12 261zM4.3 272.5c0 2.2.2 3 .4 1.7.2-1.2.2-3 0-4-.3-.9-.5.1-.4 2.3zM508.3 272.5c0 2.2.2 3 .4 1.7.2-1.2.2-3 0-4-.3-.9-.5.1-.4 2.3zM13.5 278.5c.6 3.6 3.7 7.1 32.3 35.8 17.9 17.9 32.3 31.6 33.2 31.5.8-.2 1.6-1 1.8-1.8.1-.9-14.5-16.2-33.9-35.5-32.8-32.7-34.1-33.8-33.4-30zM507.1 279.6c0 1.1.3 1.4.6.6.3-.7.2-1.6-.1-1.9-.3-.4-.6.2-.5 1.3zM6.1 289.6c0 1.1.3 1.4.6.6.3-.7.2-1.6-.1-1.9-.3-.4-.6.2-.5 1.3zM7.2 296c0 1.4.2 1.9.5 1.2.2-.6.2-1.8 0-2.5-.3-.6-.5-.1-.5 1.3zM505.1 295.6c0 1.1.3 1.4.6.6.3-.7.2-1.6-.1-1.9-.3-.4-.6.2-.5 1.3zM16.4 298.5c.5 3.7 7.2 10.6 96.4 99.8 84.5 84.5 96.3 95.9 99.7 96.7 2.2.5 4.1.8 4.2.7.1-.2-45-45.5-100.4-100.7-95.4-95.3-100.5-100.3-99.9-96.5zM504.1 301.6c0 1.1.3 1.4.6.6.3-.7.2-1.6-.1-1.9-.3-.4-.6.2-.5 1.3zM20.4 317.5c.4 1.1 1 3.2 1.3 4.6.3 1.8 26.9 29 82.6 84.7 70.6 70.4 82.8 82.2 86.1 83.1 2.2.6 4.1.9 4.3.8.1-.2-39.2-39.6-87.4-87.7-48.1-48.1-87.2-86.6-86.9-85.5zM30 346c1.9 5 7.5 10.9 65.3 68.9 53.9 54 64 63.7 68.6 65.7 2.9 1.4 5.5 2.3 5.7 2.1.2-.1-31.6-32.2-70.7-71.2C30.6 343.2 28 340.7 30 346zM99 365.8c0 1 28.1 29.9 65.3 67C225.5 494 229.8 498 233 498c3.4 0 .7-2.8-63.5-67-37.7-37.7-67.8-67-68.7-67-1.1 0-1.8.7-1.8 1.8zM46.7 379.7c3.8 6.5 10.7 13.9 39.7 43.2 32.5 32.7 37.9 37.6 49.1 44.1 2.4 1.3-15.7-17.5-44.5-46.4C64.3 393.9 42.4 372 42.3 372c-.2 0 1.8 3.5 4.4 7.7zM160.3 410.6c-.4 1.2 11.4 13.6 42.8 45 40.7 40.7 43.6 43.4 46.9 43.4 3.4 0 2-1.5-41.5-45-24.7-24.8-45.6-45-46.3-45-.7 0-1.5.7-1.9 1.6zM181.5 413c-.3.5-.2 1.8.4 2.7.5 1 19.5 20 42.1 42.3 34.5 33.9 41.8 40.6 44.4 40.8 2.7.3-2.1-4.9-40.4-43.2-23.9-24-44-43.6-44.7-43.6-.6 0-1.5.4-1.8 1zM201.5 415.9c-.3.6-.2 1.9.4 2.9.5 1 18.6 19.1 40.1 40.3 21.5 21.1 39.3 38.5 39.4 38.6.1.1 1.5-.1 3-.5 2.7-.7 1.3-2.2-38.4-41.2-22.6-22.3-41.8-40.6-42.5-40.8-.7-.2-1.6.2-2 .7zM447.9 418.7c-1.3 1.6-1.2 1.7.4.4.9-.7 1.7-1.5 1.7-1.7 0-.8-.8-.3-2.1 1.3zM77 432.5c4.7 4.7 8.7 8.5 9 8.5.2 0-3.3-3.8-8-8.5s-8.7-8.5-9-8.5c-.2 0 3.3 3.8 8 8.5zM434.5 433.2l-8 8.3 8.3-8c7.6-7.4 8.7-8.5 7.9-8.5-.1 0-3.8 3.7-8.2 8.2zM419.9 446.7c-1.3 1.6-1.2 1.7.4.4 1.6-1.3 2.1-2.1 1.3-2.1-.2 0-1 .8-1.7 1.7zM92 446.4c0 .2.8 1 1.8 1.7 1.5 1.3 1.6 1.2.3-.4s-2.1-2.1-2.1-1.3zM318.3 447.6c-.4 1.1 4 6.2 15.2 17.4 14.9 14.9 15.9 15.8 18.2 14.7 2.4-1.1 2-1.6-13.9-17.4-9-9-17-16.3-17.6-16.3-.7 0-1.5.7-1.9 1.6zM97 450.4c0 .2.8 1 1.8 1.7 1.5 1.3 1.6 1.2.3-.4s-2.1-2.1-2.1-1.3zM255.1 450.9c-.8.5-1.1 1.7-.7 2.8.3 1 9.7 10.9 20.8 22 18.4 18.2 20.6 20.1 23.1 19.6 1.5-.3 2.7-.9 2.7-1.3 0-.6-34.8-35.2-41.6-41.1-1.9-1.8-3.5-2.5-4.3-2zM413.9 451.7c-1.3 1.6-1.2 1.7.4.4 1.6-1.3 2.1-2.1 1.3-2.1-.2 0-1 .8-1.7 1.7zM102 454.4c0 .2.8 1 1.8 1.7 1.5 1.3 1.6 1.2.3-.4s-2.1-2.1-2.1-1.3zM275.3 455.6c-.4 1.1 4.5 6.7 17.3 19.5 15.4 15.4 18.2 17.8 20.2 17.2 2.2-.5.6-2.4-16.4-19.4-10.4-10.4-19.2-18.9-19.7-18.9-.4 0-1 .7-1.4 1.6zM343 455.8c0 1.8 16.8 19.2 18.5 19.2.6 0 1.7-.5 2.5-1 1.2-.8-.3-2.8-8-10.5-9.1-9.2-13-11.5-13-7.7zM309.4 456.1c-.7 1.2 26.3 28.9 28.1 28.9.5 0 1.7-.5 2.5-1 1.2-.8-1.3-3.7-12.5-15-13.2-13.2-16.4-15.5-18.1-12.9zM295.4 459.1c-.4.7 5.4 7.2 13.9 15.7 13.4 13.4 14.7 14.4 17.3 13.8 2.7-.7 2.4-1.1-12.2-15.7-14-14-17.3-16.4-19-13.8zM212.8 503.7c.7.3 1.6.2 1.9-.1.4-.3-.2-.6-1.3-.5-1.1 0-1.4.3-.6.6zM298.8 503.7c.7.3 1.6.2 1.9-.1.4-.3-.2-.6-1.3-.5-1.1 0-1.4.3-.6.6zM218.8 504.7c.6.2 1.8.2 2.5 0 .6-.3.1-.5-1.3-.5-1.4 0-1.9.2-1.2.5zM291.8 504.7c.6.2 1.8.2 2.5 0 .6-.3.1-.5-1.3-.5-1.4 0-1.9.2-1.2.5zM226.3 505.7c.9.2 2.3.2 3 0 .6-.3-.1-.5-1.8-.5-1.6 0-2.2.2-1.2.5zM284.3 505.7c.9.2 2.3.2 3 0 .6-.3-.1-.5-1.8-.5-1.6 0-2.2.2-1.2.5zM234.3 506.7c.9.2 2.5.2 3.5 0 .9-.3.1-.5-1.8-.5-1.9 0-2.7.2-1.7.5zM274.8 506.7c1.2.2 3 .2 4 0 .9-.3-.1-.5-2.3-.4-2.2 0-3 .2-1.7.4z"/></svg>